<?xml version="1.0" encoding="UTF-8" standalone="no"?>
<!DOCTYPE svg PUBLIC "-//W3C//DTD SVG 1.1//EN"
 "http://www.w3.org/Graphics/SVG/1.1/DTD/svg11.dtd">
<!-- Generated by graphviz version 2.38.0 (20140413.2041)
 -->
<!-- Title: %3 Pages: 1 -->
<svg width="1169pt" height="260pt"
 viewBox="0.00 0.00 1168.97 260.00" xmlns="http://www.w3.org/2000/svg" xmlns:xlink="http://www.w3.org/1999/xlink">
<g id="graph0" class="graph" transform="scale(1 1) rotate(0) translate(4 256)">
<title>%3</title>
<polygon fill="white" stroke="none" points="-4,4 -4,-256 1164.97,-256 1164.97,4 -4,4"/>
<!-- [root] google_compute_instance.backend -->
<g id="node1" class="node"><title>[root] google_compute_instance.backend</title>
<polygon fill="none" stroke="black" points="463.883,-108 196.883,-108 196.883,-72 463.883,-72 463.883,-108"/>
<text text-anchor="middle" x="330.383" y="-86.3" font-family="Times,serif" font-size="14.00">google_compute_instance.backend</text>
</g>
<!-- [root] provider.google.myregion -->
<g id="node4" class="node"><title>[root] provider.google.myregion</title>
<polygon fill="none" stroke="black" points="330.383,-36 146.72,-18 330.383,-3.55271e-15 514.046,-18 330.383,-36"/>
<text text-anchor="middle" x="330.383" y="-14.3" font-family="Times,serif" font-size="14.00">provider.google.myregion</text>
</g>
<!-- [root] google_compute_instance.backend&#45;&gt;[root] provider.google.myregion -->
<g id="edge1" class="edge"><title>[root] google_compute_instance.backend&#45;&gt;[root] provider.google.myregion</title>
<path fill="none" stroke="black" d="M330.383,-71.6966C330.383,-63.9827 330.383,-54.7125 330.383,-46.1124"/>
<polygon fill="black" stroke="black" points="333.883,-46.1043 330.383,-36.1043 326.883,-46.1044 333.883,-46.1043"/>
</g>
<!-- [root] google_compute_instance.frontend -->
<g id="node2" class="node"><title>[root] google_compute_instance.frontend</title>
<polygon fill="none" stroke="black" points="920.383,-108 652.383,-108 652.383,-72 920.383,-72 920.383,-108"/>
<text text-anchor="middle" x="786.383" y="-86.3" font-family="Times,serif" font-size="14.00">google_compute_instance.frontend</text>
</g>
<!-- [root] provider.google -->
<g id="node3" class="node"><title>[root] provider.google</title>
<polygon fill="none" stroke="black" points="786.383,-36 668.578,-18 786.383,-3.55271e-15 904.187,-18 786.383,-36"/>
<text text-anchor="middle" x="786.383" y="-14.3" font-family="Times,serif" font-size="14.00">provider.google</text>
</g>
<!-- [root] google_compute_instance.frontend&#45;&gt;[root] provider.google -->
<g id="edge2" class="edge"><title>[root] google_compute_instance.frontend&#45;&gt;[root] provider.google</title>
<path fill="none" stroke="black" d="M786.383,-71.6966C786.383,-63.9827 786.383,-54.7125 786.383,-46.1124"/>
<polygon fill="black" stroke="black" points="789.883,-46.1043 786.383,-36.1043 782.883,-46.1044 789.883,-46.1043"/>
</g>
<!-- [root] meta.count&#45;boundary (EachMode fixup) -->
<g id="node5" class="node"><title>[root] meta.count&#45;boundary (EachMode fixup)</title>
<ellipse fill="none" stroke="black" cx="627.383" cy="-162" rx="224.46" ry="18"/>
<text text-anchor="middle" x="627.383" y="-158.3" font-family="Times,serif" font-size="14.00">[root] meta.count&#45;boundary (EachMode fixup)</text>
</g>
<!-- [root] meta.count&#45;boundary (EachMode fixup)&#45;&gt;[root] google_compute_instance.backend -->
<g id="edge3" class="edge"><title>[root] meta.count&#45;boundary (EachMode fixup)&#45;&gt;[root] google_compute_instance.backend</title>
<path fill="none" stroke="black" d="M558.872,-144.853C515.301,-134.583 458.635,-121.228 412.636,-110.386"/>
<polygon fill="black" stroke="black" points="413.229,-106.93 402.692,-108.043 411.623,-113.743 413.229,-106.93"/>
</g>
<!-- [root] meta.count&#45;boundary (EachMode fixup)&#45;&gt;[root] google_compute_instance.frontend -->
<g id="edge4" class="edge"><title>[root] meta.count&#45;boundary (EachMode fixup)&#45;&gt;[root] google_compute_instance.frontend</title>
<path fill="none" stroke="black" d="M665.467,-144.233C687.269,-134.635 714.836,-122.499 738.141,-112.239"/>
<polygon fill="black" stroke="black" points="739.763,-115.349 747.505,-108.116 736.942,-108.942 739.763,-115.349"/>
</g>
<!-- [root] provider.google (close) -->
<g id="node6" class="node"><title>[root] provider.google (close)</title>
<ellipse fill="none" stroke="black" cx="1015.38" cy="-162" rx="145.674" ry="18"/>
<text text-anchor="middle" x="1015.38" y="-158.3" font-family="Times,serif" font-size="14.00">[root] provider.google (close)</text>
</g>
<!-- [root] provider.google (close)&#45;&gt;[root] google_compute_instance.frontend -->
<g id="edge5" class="edge"><title>[root] provider.google (close)&#45;&gt;[root] google_compute_instance.frontend</title>
<path fill="none" stroke="black" d="M963.419,-145.116C930.369,-135.013 887.291,-121.845 851.904,-111.028"/>
<polygon fill="black" stroke="black" points="852.728,-107.62 842.142,-108.044 850.682,-114.315 852.728,-107.62"/>
</g>
<!-- [root] provider.google.myregion (close) -->
<g id="node7" class="node"><title>[root] provider.google.myregion (close)</title>
<ellipse fill="none" stroke="black" cx="192.383" cy="-162" rx="192.266" ry="18"/>
<text text-anchor="middle" x="192.383" y="-158.3" font-family="Times,serif" font-size="14.00">[root] provider.google.myregion (close)</text>
</g>
<!-- [root] provider.google.myregion (close)&#45;&gt;[root] google_compute_instance.backend -->
<g id="edge6" class="edge"><title>[root] provider.google.myregion (close)&#45;&gt;[root] google_compute_instance.backend</title>
<path fill="none" stroke="black" d="M225.437,-144.233C244.107,-134.763 267.649,-122.822 287.702,-112.65"/>
<polygon fill="black" stroke="black" points="289.305,-115.761 296.64,-108.116 286.138,-109.519 289.305,-115.761"/>
</g>
<!-- [root] root -->
<g id="node8" class="node"><title>[root] root</title>
<ellipse fill="none" stroke="black" cx="627.383" cy="-234" rx="58.4896" ry="18"/>
<text text-anchor="middle" x="627.383" y="-230.3" font-family="Times,serif" font-size="14.00">[root] root</text>
</g>
<!-- [root] root&#45;&gt;[root] meta.count&#45;boundary (EachMode fixup) -->
<g id="edge7" class="edge"><title>[root] root&#45;&gt;[root] meta.count&#45;boundary (EachMode fixup)</title>
<path fill="none" stroke="black" d="M627.383,-215.697C627.383,-207.983 627.383,-198.712 627.383,-190.112"/>
<polygon fill="black" stroke="black" points="630.883,-190.104 627.383,-180.104 623.883,-190.104 630.883,-190.104"/>
</g>
<!-- [root] root&#45;&gt;[root] provider.google (close) -->
<g id="edge8" class="edge"><title>[root] root&#45;&gt;[root] provider.google (close)</title>
<path fill="none" stroke="black" d="M676.523,-224.134C739.266,-212.815 848.974,-193.022 926.541,-179.028"/>
<polygon fill="black" stroke="black" points="927.567,-182.4 936.787,-177.18 926.324,-175.511 927.567,-182.4"/>
</g>
<!-- [root] root&#45;&gt;[root] provider.google.myregion (close) -->
<g id="edge9" class="edge"><title>[root] root&#45;&gt;[root] provider.google.myregion (close)</title>
<path fill="none" stroke="black" d="M576.632,-224.833C507.791,-213.755 383.254,-193.715 294.624,-179.453"/>
<polygon fill="black" stroke="black" points="294.971,-175.963 284.542,-177.83 293.859,-182.875 294.971,-175.963"/>
</g>
</g>
</svg>
