<?xml version="1.0" encoding="UTF-8" standalone="no"?>
<!DOCTYPE svg PUBLIC "-//W3C//DTD SVG 1.1//EN"
 "http://www.w3.org/Graphics/SVG/1.1/DTD/svg11.dtd">
<!-- Generated by graphviz version 2.38.0 (20140413.2041)
 -->
<!-- Title: %3 Pages: 1 -->
<svg width="766pt" height="332pt"
 viewBox="0.00 0.00 765.82 332.00" xmlns="http://www.w3.org/2000/svg" xmlns:xlink="http://www.w3.org/1999/xlink">
<g id="graph0" class="graph" transform="scale(1 1) rotate(0) translate(4 328)">
<title>%3</title>
<polygon fill="white" stroke="none" points="-4,4 -4,-328 761.817,-328 761.817,4 -4,4"/>
<!-- [root] google_compute_instance.backend -->
<g id="node1" class="node"><title>[root] google_compute_instance.backend</title>
<polygon fill="none" stroke="black" points="551.73,-108 284.73,-108 284.73,-72 551.73,-72 551.73,-108"/>
<text text-anchor="middle" x="418.23" y="-86.3" font-family="Times,serif" font-size="14.00">google_compute_instance.backend</text>
</g>
<!-- [root] provider.google -->
<g id="node3" class="node"><title>[root] provider.google</title>
<polygon fill="none" stroke="black" points="418.23,-36 300.426,-18 418.23,-3.55271e-15 536.035,-18 418.23,-36"/>
<text text-anchor="middle" x="418.23" y="-14.3" font-family="Times,serif" font-size="14.00">provider.google</text>
</g>
<!-- [root] google_compute_instance.backend&#45;&gt;[root] provider.google -->
<g id="edge1" class="edge"><title>[root] google_compute_instance.backend&#45;&gt;[root] provider.google</title>
<path fill="none" stroke="black" d="M418.23,-71.6966C418.23,-63.9827 418.23,-54.7125 418.23,-46.1124"/>
<polygon fill="black" stroke="black" points="421.73,-46.1043 418.23,-36.1043 414.73,-46.1044 421.73,-46.1043"/>
</g>
<!-- [root] google_compute_instance.frontend -->
<g id="node2" class="node"><title>[root] google_compute_instance.frontend</title>
<polygon fill="none" stroke="black" points="552.23,-180 284.23,-180 284.23,-144 552.23,-144 552.23,-180"/>
<text text-anchor="middle" x="418.23" y="-158.3" font-family="Times,serif" font-size="14.00">google_compute_instance.frontend</text>
</g>
<!-- [root] google_compute_instance.frontend&#45;&gt;[root] google_compute_instance.backend -->
<g id="edge2" class="edge"><title>[root] google_compute_instance.frontend&#45;&gt;[root] google_compute_instance.backend</title>
<path fill="none" stroke="black" d="M418.23,-143.697C418.23,-135.983 418.23,-126.712 418.23,-118.112"/>
<polygon fill="black" stroke="black" points="421.73,-118.104 418.23,-108.104 414.73,-118.104 421.73,-118.104"/>
</g>
<!-- [root] meta.count&#45;boundary (EachMode fixup) -->
<g id="node4" class="node"><title>[root] meta.count&#45;boundary (EachMode fixup)</title>
<ellipse fill="none" stroke="black" cx="224.23" cy="-234" rx="224.46" ry="18"/>
<text text-anchor="middle" x="224.23" y="-230.3" font-family="Times,serif" font-size="14.00">[root] meta.count&#45;boundary (EachMode fixup)</text>
</g>
<!-- [root] meta.count&#45;boundary (EachMode fixup)&#45;&gt;[root] google_compute_instance.frontend -->
<g id="edge3" class="edge"><title>[root] meta.count&#45;boundary (EachMode fixup)&#45;&gt;[root] google_compute_instance.frontend</title>
<path fill="none" stroke="black" d="M270.698,-216.233C297.89,-206.422 332.433,-193.958 361.257,-183.557"/>
<polygon fill="black" stroke="black" points="362.575,-186.803 370.794,-180.116 360.199,-180.218 362.575,-186.803"/>
</g>
<!-- [root] provider.google (close) -->
<g id="node5" class="node"><title>[root] provider.google (close)</title>
<ellipse fill="none" stroke="black" cx="612.23" cy="-234" rx="145.674" ry="18"/>
<text text-anchor="middle" x="612.23" y="-230.3" font-family="Times,serif" font-size="14.00">[root] provider.google (close)</text>
</g>
<!-- [root] provider.google (close)&#45;&gt;[root] google_compute_instance.frontend -->
<g id="edge4" class="edge"><title>[root] provider.google (close)&#45;&gt;[root] google_compute_instance.frontend</title>
<path fill="none" stroke="black" d="M567.235,-216.765C539.781,-206.859 504.436,-194.105 475.06,-183.506"/>
<polygon fill="black" stroke="black" points="475.941,-180.103 465.347,-180.001 473.565,-186.687 475.941,-180.103"/>
</g>
<!-- [root] root -->
<g id="node6" class="node"><title>[root] root</title>
<ellipse fill="none" stroke="black" cx="418.23" cy="-306" rx="58.4896" ry="18"/>
<text text-anchor="middle" x="418.23" y="-302.3" font-family="Times,serif" font-size="14.00">[root] root</text>
</g>
<!-- [root] root&#45;&gt;[root] meta.count&#45;boundary (EachMode fixup) -->
<g id="edge5" class="edge"><title>[root] root&#45;&gt;[root] meta.count&#45;boundary (EachMode fixup)</title>
<path fill="none" stroke="black" d="M381.74,-291.834C353.069,-281.488 312.655,-266.906 279.943,-255.103"/>
<polygon fill="black" stroke="black" points="281.094,-251.797 270.5,-251.695 278.718,-258.382 281.094,-251.797"/>
</g>
<!-- [root] root&#45;&gt;[root] provider.google (close) -->
<g id="edge6" class="edge"><title>[root] root&#45;&gt;[root] provider.google (close)</title>
<path fill="none" stroke="black" d="M454.72,-291.834C483.791,-281.344 524.934,-266.499 557.88,-254.611"/>
<polygon fill="black" stroke="black" points="559.16,-257.87 567.378,-251.184 556.784,-251.286 559.16,-257.87"/>
</g>
</g>
</svg>
